<?xml version="1.0" encoding="UTF-8" standalone="no"?>
<!DOCTYPE svg PUBLIC "-//W3C//DTD SVG 1.1//EN" "http://www.w3.org/Graphics/SVG/1.1/DTD/svg11.dtd">
<svg width="100%" height="100%" viewBox="0 0 180 180" version="1.1" xmlns="http://www.w3.org/2000/svg" xmlns:xlink="http://www.w3.org/1999/xlink" xml:space="preserve" xmlns:serif="http://www.serif.com/" style="fill-rule:evenodd;clip-rule:evenodd;stroke-linecap:square;stroke-linejoin:round;stroke-miterlimit:2;">
    <g transform="matrix(1,0,0,1,-667.604,-1649.93)">
        <g transform="matrix(1.40625,0,0,1.40625,-309.74,-893.974)">
            <g transform="matrix(0.554113,0,0,1.24272,311,-531.039)">
                <rect x="693" y="1883" width="231" height="103"/>
            </g>
            <g transform="matrix(1.63484,0,0,1.63484,168.404,1165.82)">
                <g transform="matrix(1.38299,0,0,1.38299,-126.78,-117.231)">
                    <path d="M365,398.015L337.613,398.015C337.451,398.015 337.295,397.95 337.18,397.835C337.065,397.72 337,397.564 337,397.401C337,395.147 337,387.336 337,385.082C337,384.743 337.275,384.468 337.614,384.468C341.478,384.468 362.476,384.468 368.427,384.468C369.296,384.468 370,385.172 370,386.041C370,390.826 370,405.174 370,409.959C370,410.828 369.296,411.532 368.427,411.532C361.865,411.532 337,411.532 337,411.532" style="fill:none;stroke:rgb(255,153,38);stroke-width:8.72px;"/>
                </g>
                <g transform="matrix(1.38299,0,0,1.38299,-128.52,-118.97)">
                    <path d="M365,398.015L337.613,398.015C337.451,398.015 337.295,397.95 337.18,397.835C337.065,397.72 337,397.564 337,397.401C337,395.147 337,387.336 337,385.082C337,384.743 337.275,384.468 337.614,384.468C341.478,384.468 362.476,384.468 368.427,384.468C369.296,384.468 370,385.172 370,386.041C370,390.826 370,405.174 370,409.959C370,410.828 369.296,411.532 368.427,411.532C361.865,411.532 337,411.532 337,411.532" style="fill:none;stroke:rgb(0,247,223);stroke-width:8.72px;"/>
                </g>
            </g>
        </g>
    </g>
</svg>
