<?xml version="1.0" encoding="UTF-8" standalone="no"?>
<!DOCTYPE svg PUBLIC "-//W3C//DTD SVG 1.1//EN" "http://www.w3.org/Graphics/SVG/1.1/DTD/svg11.dtd">
<svg width="100%" height="100%" viewBox="0 0 56 65" version="1.1" xmlns="http://www.w3.org/2000/svg" xmlns:xlink="http://www.w3.org/1999/xlink" xml:space="preserve" xmlns:serif="http://www.serif.com/" style="fill-rule:evenodd;clip-rule:evenodd;stroke-linejoin:round;stroke-miterlimit:2;">
    <g transform="matrix(1,0,0,1,-1449.27,-791)">
        <g transform="matrix(1.48622,0,0,1.48622,480.438,234.532)">
            <g id="SA-logo-proto" transform="matrix(-2.39281,-5.8607e-16,-5.8607e-16,2.39281,4963.19,-398.462)">
                <g transform="matrix(-0.1965,-0.1965,-0.982242,0.982242,2472.81,355.641)">
                    <rect x="1785.9" y="327" width="3.097" height="13" style="fill:rgb(74,74,79);"/>
                </g>
                <g transform="matrix(0.44898,0,0,-0.44898,1148.59,488.714)">
                    <path d="M1454.82,336.176C1450.23,331.581 1444,329 1437.5,329C1431,329 1424.77,331.581 1420.18,336.176L1424.51,340.507C1427.95,337.061 1432.63,335.125 1437.5,335.125C1442.37,335.125 1447.05,337.061 1450.49,340.507L1454.82,336.176Z" style="fill:rgb(74,74,79);"/>
                </g>
                <g transform="matrix(0.44898,0,0,0.44898,1148.59,175.286)">
                    <path d="M1454.82,336.176C1450.23,331.581 1444,329 1437.5,329C1431,329 1424.77,331.581 1420.18,336.176L1424.51,340.507C1427.95,337.061 1432.63,335.125 1437.5,335.125C1442.37,335.125 1447.05,337.061 1450.49,340.507L1454.82,336.176Z" style="fill:rgb(74,74,79);"/>
                </g>
            </g>
        </g>
    </g>
</svg>
