<?xml version="1.0" encoding="UTF-8" standalone="no"?>
<!DOCTYPE svg PUBLIC "-//W3C//DTD SVG 1.1//EN" "http://www.w3.org/Graphics/SVG/1.1/DTD/svg11.dtd">
<svg width="100%" height="100%" viewBox="0 0 1415 85" version="1.1" xmlns="http://www.w3.org/2000/svg" xmlns:xlink="http://www.w3.org/1999/xlink" xml:space="preserve" xmlns:serif="http://www.serif.com/" style="fill-rule:evenodd;clip-rule:evenodd;stroke-linecap:square;stroke-miterlimit:2;">
    <g transform="matrix(1,0,0,1,-791.468,-783.69)">
        <g transform="matrix(1.47835,0,0,1.47835,485.111,237.122)">
            <g transform="matrix(1.00527,0,0,1.00527,-3.12173,-1.72917)">
                <g id="HEADER2-darker" serif:id="HEADER2 darker">
                    <g id="name">
                        <g id="tr-909" transform="matrix(1,0,0,1,2,0)">
                            <g transform="matrix(1,0,0,0.965498,2,12.781)">
                                <path d="M215,385L258,385L235,385L235,413" style="fill:none;stroke:rgb(94,94,101);stroke-width:8.87px;"/>
                            </g>
                            <g id="R">
                                <g transform="matrix(1,0,0,1.03863,0,-15.4046)">
                                    <path d="M268,385L302.624,385C302.989,385 303.339,385.14 303.597,385.388C303.855,385.637 304,385.974 304,386.325C304,388.156 304,391.532 304,394.185C304,395.197 303.583,396.167 302.839,396.883C302.096,397.598 301.088,398 300.037,398C290.681,398 268,398 268,398L268,411" style="fill:none;stroke:rgb(94,94,101);stroke-width:8.56px;"/>
                                </g>
                                <g transform="matrix(1.87341,0,0,2.06284,-1312.62,-442.541)">
                                    <path d="M863,414C863,413.718 863,407.455 861,407.455" style="fill:none;stroke:rgb(94,94,101);stroke-width:4.37px;"/>
                                </g>
                            </g>
                            <path d="M365,398.015L338.313,398.015C337.964,398.015 337.631,397.876 337.384,397.63C337.138,397.384 337,397.05 337,396.702C337,394.112 337,388.371 337,385.781C337,385.433 337.138,385.099 337.385,384.853C337.631,384.607 337.965,384.468 338.313,384.468L366.636,384.468C367.528,384.468 368.384,384.823 369.015,385.454C369.646,386.085 370,386.94 370,387.833C370,393.033 370,402.967 370,408.167C370,409.06 369.646,409.915 369.015,410.546C368.384,411.177 367.528,411.532 366.636,411.532C358.233,411.532 337,411.532 337,411.532" style="fill:none;stroke:rgb(94,94,101);stroke-width:8.72px;"/>
                            <path d="M316,398.015L326,398.015" style="fill:none;stroke:rgb(94,94,101);stroke-width:8.72px;"/>
                            <g transform="matrix(1,0,0,1,90,0)">
                                <path d="M365,398.015L338.313,398.015C337.964,398.015 337.631,397.876 337.384,397.63C337.138,397.384 337,397.05 337,396.702C337,394.112 337,388.371 337,385.781C337,385.433 337.138,385.099 337.385,384.853C337.631,384.607 337.965,384.468 338.313,384.468L366.636,384.468C367.528,384.468 368.384,384.823 369.015,385.454C369.646,386.085 370,386.94 370,387.833C370,393.033 370,402.967 370,408.167C370,409.06 369.646,409.915 369.015,410.546C368.384,411.177 367.528,411.532 366.636,411.532C358.233,411.532 337,411.532 337,411.532" style="fill:none;stroke:rgb(94,94,101);stroke-width:8.72px;"/>
                            </g>
                            <g transform="matrix(0.806452,0,0,0.665103,77.129,133.289)">
                                <path d="M372.185,409.002C372.185,417.642 377.961,424.646 385.086,424.646L411.914,424.646C419.039,424.646 424.815,417.642 424.815,409.003L424.815,387.025C424.815,378.39 419.045,371.389 411.924,371.382L385.111,371.356C381.684,371.353 378.396,373.002 375.971,375.939C373.547,378.877 372.185,382.862 372.185,387.018L372.185,409.002ZM383,409.002C383,410.399 383.934,411.532 385.086,411.532C390.732,411.532 406.268,411.532 411.914,411.532C413.066,411.532 414,410.399 414,409.003C414,403.848 414,392.178 414,387.025C414,385.629 413.067,384.497 411.916,384.496C406.276,384.49 390.763,384.476 385.103,384.47C384.545,384.47 384.01,384.738 383.616,385.216C383.222,385.694 383,386.342 383,387.018C383,392.188 383,403.85 383,409.002Z" style="fill:rgb(94,94,101);"/>
                            </g>
                        </g>
                        <g id="rhythm-composer" serif:id="rhythm composer" transform="matrix(1,0,0,1,-1,0)">
                            <g id="R1" serif:id="R">
                                <path d="M847,402L862.327,402C862.506,402 862.677,402.071 862.803,402.197C862.929,402.323 863,402.494 863,402.673C863,403.827 863,406.173 863,407.327C863,407.506 862.929,407.677 862.803,407.803C862.677,407.929 862.506,408 862.327,408C859.289,408 847,408 847,408L847,414" style="fill:none;stroke:rgb(94,94,101);stroke-width:3.88px;"/>
                                <g transform="matrix(1,0,0,0.916667,0,34.5)">
                                    <path d="M863,414C863,414 862.984,407.455 861,407.455" style="fill:none;stroke:rgb(94,94,101);stroke-width:4.04px;"/>
                                </g>
                            </g>
                            <g id="H">
                                <path d="M869,402L869,414" style="fill:none;stroke:rgb(94,94,101);stroke-width:3.88px;"/>
                                <g transform="matrix(6.12323e-17,-1,1,6.12323e-17,469,1277)">
                                    <path d="M869,402L869,414" style="fill:none;stroke:rgb(94,94,101);stroke-width:3.88px;"/>
                                </g>
                                <g transform="matrix(1,0,0,1,16,0)">
                                    <path d="M869,402L869,414" style="fill:none;stroke:rgb(94,94,101);stroke-width:3.88px;"/>
                                </g>
                            </g>
                            <g id="Y">
                                <path d="M891,402L891,407.327C891,407.506 891.071,407.677 891.197,407.803C891.323,407.929 891.494,408 891.673,408C894.163,408 902.837,408 905.327,408C905.506,408 905.677,407.929 905.803,407.803C905.929,407.677 906,407.506 906,407.327C906,405.76 906,402 906,402" style="fill:none;stroke:rgb(94,94,101);stroke-width:3.88px;"/>
                                <path d="M898.5,414L898.5,409" style="fill:none;stroke:rgb(94,94,101);stroke-width:3.88px;"/>
                            </g>
                            <g id="T">
                                <path d="M912,402L927,402" style="fill:none;stroke:rgb(94,94,101);stroke-width:3.88px;"/>
                                <path d="M919.5,402L919.5,414" style="fill:none;stroke:rgb(94,94,101);stroke-width:3.88px;"/>
                            </g>
                            <g id="H1" serif:id="H" transform="matrix(1,0,0,1,64,0)">
                                <path d="M869,402L869,414" style="fill:none;stroke:rgb(94,94,101);stroke-width:3.88px;"/>
                                <g transform="matrix(6.12323e-17,-1,1,6.12323e-17,469,1277)">
                                    <path d="M869,402L869,414" style="fill:none;stroke:rgb(94,94,101);stroke-width:3.88px;"/>
                                </g>
                                <g transform="matrix(1,0,0,1,16,0)">
                                    <path d="M869,402L869,414" style="fill:none;stroke:rgb(94,94,101);stroke-width:3.88px;"/>
                                </g>
                            </g>
                            <g transform="matrix(1,0,0,0.957251,1,17.7513)">
                                <path d="M954,414C954,414 953.994,405.99 953.99,402.01C953.99,401.706 954.178,401.437 954.455,401.345C954.732,401.252 955.035,401.358 955.203,401.605C957.336,404.74 961.705,411.163 963.588,413.931C963.794,414.234 964.128,414.413 964.483,414.413C964.839,414.413 965.172,414.233 965.378,413.93C967.262,411.152 971.643,404.695 973.777,401.549C973.945,401.302 974.248,401.196 974.525,401.288C974.802,401.38 974.99,401.649 974.99,401.952C974.994,405.944 975,414 975,414" style="fill:none;stroke:rgb(94,94,101);stroke-width:3.88px;"/>
                            </g>
                            <g transform="matrix(1,0,0,1,-19,0)">
                                <path d="M1022,402C1022,402 1012.85,401.999 1009.35,401.999C1008.99,401.999 1008.65,402.141 1008.39,402.393C1008.14,402.646 1008,402.988 1008,403.345C1008,405.654 1008,410.345 1008,412.654C1008,413.011 1008.14,413.353 1008.39,413.606C1008.65,413.858 1008.99,414 1009.35,414C1012.85,414 1022,414 1022,414" style="fill:none;stroke:rgb(94,94,101);stroke-width:3.88px;"/>
                            </g>
                            <g transform="matrix(1,0,0,0.956001,77,18.2707)">
                                <path d="M954,414C954,414 953.994,405.99 953.99,402.011C953.99,401.706 954.178,401.437 954.455,401.344C954.732,401.252 955.034,401.357 955.203,401.605C957.336,404.74 961.706,411.164 963.588,413.931C963.795,414.234 964.128,414.414 964.483,414.414C964.839,414.414 965.172,414.233 965.378,413.93C967.262,411.153 971.644,404.694 973.777,401.549C973.946,401.301 974.248,401.195 974.525,401.288C974.802,401.38 974.99,401.649 974.99,401.953C974.994,405.945 975,414 975,414" style="fill:none;stroke:rgb(94,94,101);stroke-width:3.88px;"/>
                            </g>
                            <g transform="matrix(1,0,0,1,1,0)">
                                <path d="M1024,406.377L1024,402.673C1024,402.301 1023.7,402 1023.33,402C1020.72,402 1011.28,401.999 1008.67,401.999C1008.49,401.999 1008.32,402.07 1008.2,402.196C1008.07,402.322 1008,402.494 1008,402.672C1008,404.777 1008,411.222 1008,413.327C1008,413.699 1008.3,414 1008.67,414C1011.28,414 1020.72,414 1023.33,414C1023.51,414 1023.68,413.929 1023.8,413.803C1023.93,413.677 1024,413.506 1024,413.327C1024,412.187 1024,410 1024,410" style="fill:none;stroke:rgb(94,94,101);stroke-width:3.88px;"/>
                            </g>
                            <g transform="matrix(1,0,0,1,211,0)">
                                <path d="M847,402L862.327,402C862.506,402 862.677,402.071 862.803,402.197C862.929,402.323 863,402.494 863,402.673C863,403.827 863,406.173 863,407.327C863,407.506 862.929,407.677 862.803,407.803C862.677,407.929 862.506,408 862.327,408C859.289,408 847,408 847,408L847,414" style="fill:none;stroke:rgb(94,94,101);stroke-width:3.88px;"/>
                            </g>
                            <g transform="matrix(1,0,0,1,72,0)">
                                <path d="M1024,406.377L1024,402.673C1024,402.301 1023.7,402 1023.33,402C1020.72,402 1011.28,401.999 1008.67,401.999C1008.49,401.999 1008.32,402.07 1008.2,402.196C1008.07,402.322 1008,402.494 1008,402.672C1008,404.777 1008,411.222 1008,413.327C1008,413.699 1008.3,414 1008.67,414C1011.28,414 1020.72,414 1023.33,414C1023.51,414 1023.68,413.929 1023.8,413.803C1023.93,413.677 1024,413.506 1024,413.327C1024,412.187 1024,410 1024,410" style="fill:none;stroke:rgb(94,94,101);stroke-width:3.88px;"/>
                            </g>
                            <g transform="matrix(-1,0,0,1,1965,0)">
                                <path d="M847,402L862.327,402C862.506,402 862.677,402.071 862.803,402.197C862.929,402.323 863,402.494 863,402.673C863,403.827 863,406.173 863,407.327C863,407.506 862.929,407.677 862.803,407.803C862.677,407.929 862.506,408 862.327,408C859.718,408 850.282,408 847.673,408C847.494,408 847.323,408.071 847.197,408.197C847.071,408.323 847,408.494 847,408.673C847,409.827 847,412.173 847,413.327C847,413.506 847.071,413.677 847.197,413.803C847.323,413.929 847.494,414 847.673,414C850.712,414 863.009,414 863.009,414" style="fill:none;stroke:rgb(94,94,101);stroke-width:3.88px;"/>
                            </g>
                            <g id="E">
                                <g transform="matrix(1,0,0,1,116,0)">
                                    <path d="M1020,402C1020,402 1012.48,401.999 1009.35,401.999C1008.99,401.999 1008.65,402.141 1008.39,402.393C1008.14,402.646 1008,402.988 1008,403.345C1008,405.654 1008,410.345 1008,412.654C1008,413.011 1008.14,413.353 1008.39,413.606C1008.65,413.858 1008.99,414 1009.35,414C1012.48,414 1020,414 1020,414" style="fill:none;stroke:rgb(94,94,101);stroke-width:3.88px;"/>
                                </g>
                                <path d="M1136,408L1126,408" style="fill:none;stroke:rgb(94,94,101);stroke-width:3.88px;"/>
                            </g>
                            <g id="R2" serif:id="R" transform="matrix(1,0,0,1,295,0)">
                                <path d="M847,402L862.327,402C862.506,402 862.677,402.071 862.803,402.197C862.929,402.323 863,402.494 863,402.673C863,403.827 863,406.173 863,407.327C863,407.506 862.929,407.677 862.803,407.803C862.677,407.929 862.506,408 862.327,408C859.289,408 847,408 847,408L847,414" style="fill:none;stroke:rgb(94,94,101);stroke-width:3.88px;"/>
                                <g transform="matrix(1,0,0,0.916667,0,34.5)">
                                    <path d="M863,414C863,414 862.984,407.455 861,407.455" style="fill:none;stroke:rgb(94,94,101);stroke-width:4.04px;"/>
                                </g>
                            </g>
                        </g>
                    </g>
                </g>
            </g>
        </g>
    </g>
</svg>
